<?xml version="1.0" encoding="UTF-8"?>
<!-- Generator: Adobe Illustrator 18.0.0, SVG Export Plug-In . SVG Version: 6.00 Build 0)  -->
<!DOCTYPE svg PUBLIC "-//W3C//DTD SVG 1.1//EN" "http://www.w3.org/Graphics/SVG/1.1/DTD/svg11.dtd">
<svg version="1.1" id="Layer_1" xmlns="http://www.w3.org/2000/svg" xmlns:xlink="http://www.w3.org/1999/xlink" x="0px" y="0px" viewBox="0 0 372.7 223.6" enable-background="new 0 0 372.7 223.6" xml:space="preserve">
<path fill="#0D389E" d="M106.9,177.8H98c-0.6,0-1.1,0.5-1.1,1.1v22.8c0,3.7-1.5,5.7-4.9,5.7c-3.4,0-4.9-2-4.9-5.7v-22.8  c0-0.6-0.4-1.1-1.1-1.1H77c-0.6,0-1.1,0.5-1.1,1.1v25c0,7.7,5.6,14,16,14c10.5,0,16.2-6.2,16.2-14v-25  C108.1,178.3,107.6,177.8,106.9,177.8"/>
<path fill="#0D389E" d="M171.5,193.8l-6.5-2.2c-1.9-0.7-2.1-1.7-2.1-2.4c0-1,1-2,2.9-2c2.1,0,5.1,0.6,8,2.8c0.4,0.3,1,0.3,1.3-0.1  l5-6.3c0.3-0.4,0.3-1-0.1-1.4c-4.3-3.6-9.5-4.9-14.3-4.9c-9.3,0-14.9,5.8-14.9,12.1c0,4.9,2.9,9.5,9,11.5l5.7,2  c2.8,1,3.3,1.7,3.3,2.9c0,1.1-1.1,2.3-3.4,2.3c-3.2,0-6.9-1.9-9.4-4c-0.4-0.3-1-0.3-1.3,0.1l-5.1,6.8c-0.3,0.4-0.3,1,0.1,1.4  c3.7,3.2,9.2,5.6,16.2,5.6c8.7,0,15.1-5.1,15.1-12.7C181,200,177.7,195.9,171.5,193.8"/>
<path fill="#0D389E" d="M130.7,194.6h-5.8v-6.8h5.8c3.3,0,4.5,1.5,4.5,3.4C135.2,193.1,133.9,194.6,130.7,194.6 M139.5,202.5  c4.8-2.4,7.2-6,7.2-11.5c0-6.9-5.6-13.1-15.1-13.1h-17.1c-0.6,0-1,0.6-1,1.1v37.2c0,0.6,0.5,1,1,1h9.2c0.6,0,1-0.5,1-1v-12h3.6  l6.5,12.1c0.3,0.5,0.9,0.9,1.5,0.9h10.6c0.6,0,0.8-0.4,0.5-0.9L139.5,202.5z"/>
<path fill="#0D389E" d="M28,177.8H1.3c-0.8,0-1.3,0.6-1.3,1.2v37c0,0.6,0.5,1.1,1.1,1.1h9c0.6,0,1-0.6,1-1.1V204h11.4  c0.6,0,1.1-0.4,1.2-1l1.7-8.2c0.1-0.5-0.1-1-0.8-1H11.2v-6h15.1c0.6,0,1.1-0.4,1.2-1l1.6-7.7C29.2,178.5,28.8,177.8,28,177.8"/>
<path fill="#0D389E" d="M369.8,187.9c0.6,0,1.1-0.4,1.2-1l1.6-7.7c0.1-0.7,0-1.3-1-1.3h-26.9c-0.8,0-1.2,0.6-1.2,1.2v37  c0,0.6,0.5,1.1,1.1,1.1h24.5c0.6,0,1.1-0.4,1.2-1l1.6-7.7c0.1-0.7,0-1.3-1-1.3h-16.3v-4.5h11.4c0.6,0,1.1-0.4,1.2-1l1.7-8.2  c0.1-0.5-0.1-1-0.8-1h-13.5v-4.5H369.8z"/>
<path fill="#0D389E" d="M282.2,200.1h-3.6l3.6-12l3.6,12H282.2z M289.6,178.7c-0.1-0.5-0.7-0.9-1.2-0.9h-12.3  c-0.5,0-1.1,0.4-1.2,0.9l-11.3,37.5c-0.2,0.5,0.1,1,0.7,1h10.1c0.5,0,1.1-0.5,1.2-1l1.6-5.7h10.1l1.7,5.7c0.1,0.5,0.7,1,1.2,1h10  c0.5,0,0.8-0.5,0.7-1L289.6,178.7z"/>
<path fill="#0D389E" d="M260.5,177.8h-8.9c-0.6,0-1.1,0.5-1.1,1.1v22.8c0,3.7-1.5,5.7-4.9,5.7c-3.4,0-4.9-2-4.9-5.7v-22.8  c0-0.6-0.4-1.1-1.1-1.1h-8.9c-0.6,0-1.1,0.5-1.1,1.1v25c0,7.7,5.6,14,16,14c10.5,0,16.2-6.2,16.2-14v-25  C261.6,178.3,261.1,177.8,260.5,177.8"/>
<path fill="#0D389E" d="M322,194.6h-5.8v-6.8h5.8c3.2,0,4.5,1.5,4.5,3.4C326.5,193.1,325.2,194.6,322,194.6 M330.8,202.5  c4.8-2.4,7.2-6,7.2-11.5c0-6.9-5.6-13.1-15.1-13.1h-17.1c-0.6,0-1,0.6-1,1.1v37.2c0,0.6,0.5,1,1,1h9.2c0.6,0,1-0.5,1-1v-12h3.6  l6.5,12.1c0.3,0.5,0.9,0.9,1.5,0.9h10.6c0.6,0,0.8-0.4,0.5-0.9L330.8,202.5z"/>
<path fill="#0D389E" d="M204.3,207.5c-5.1,0-8.6-4.5-8.6-10c0-5.5,3.5-10,8.6-10c5.1,0,8.6,4.5,8.6,10  C212.9,203.1,209.4,207.5,204.3,207.5 M224.7,212.3c-1.3,0.5-3.6,1.1-6.3,0.5c0,0,0,0,0,0c0.4-0.4,0.8-0.7,1.2-1.1  c5.3-5.6,6.8-14,4.2-21.2c-2.7-7.4-9.8-12.5-17.7-13.1c-8-0.6-16.1,3.3-19.9,10.2c-4,7.3-3.3,16.9,2.2,23.3  c4.7,5.5,12.2,7.8,19.1,6.8c0.1,0.1,0.2,0.2,0.3,0.3c3.9,3.6,10.1,5.7,15.5,5.7l2.2-10.8C225.5,212.5,225.2,212.1,224.7,212.3"/>
<path fill="#0D389E" d="M50.7,207.5c-5.1,0-8.6-4.5-8.6-10c0-5.5,3.5-10,8.6-10c5.1,0,8.6,4.5,8.6,10  C59.4,203.1,55.9,207.5,50.7,207.5 M52.5,177.3c-8-0.6-16.1,3.3-19.9,10.2c-4,7.3-3.3,16.9,2.2,23.3c7.8,9.1,23,9.4,31.2,0.8  c5.3-5.6,6.8-14,4.2-21.2C67.5,183,60.4,178,52.5,177.3"/>
<path fill="#FA4778" d="M87.2,21.1L83.7,38c-0.4,1.8-2.1,3.4-4.2,3.4H49.1c-3.4,0-6.2,2.8-6.2,6.2v3.7c0,3.4,2.8,6.2,6.2,6.2h25.7  c2.4,0,4.4,2.3,3.9,4.8c-0.5,2.6-3.2,15.8-3.5,17.2C75,81,73.4,82.9,71,82.9H50c-4.4,0.1-5.3,0.2-7.9,3.4c-2.6,3.2-25.6,32-25.6,32  c-0.2,0.3-0.4,0.2-0.4-0.1V20.3c0-2.3,1.9-4.2,4.2-4.2h63.1C85.6,16.1,87.8,18.3,87.2,21.1 M91.8,0c0,0-67.1,0-77.9,0  C3.2,0,0,8.1,0,13.2v123.8c0,6.1,3.1,7.9,4.8,8.6c1.7,0.7,6.2,1.2,9.4-2c0,0,37-43.1,37.6-43.8c0.6-0.7,0.9-0.7,1.3-0.7  c0.4,0,15.7,0,23.4,0c10,0,11.9-6.9,13-11.1c0.9-3.5,11.2-53.5,14.4-69.3C106.3,6.5,103.2,0,91.8,0"/>
</svg>